<svg width="143" height="32" viewBox="0 0 143 32" fill="none" xmlns="http://www.w3.org/2000/svg">
<g clip-path="url(#clip0_4815_2091)">
<path fill-rule="evenodd" clip-rule="evenodd" d="M29.7 0.966309H0V30.6663H29.7V0.966309ZM15.5366 9.28284H17.0395V24.7412H20.0453V6.92115H15.5366C11.0279 6.92115 8.66624 9.28284 8.66624 12.718C8.66624 15.5091 9.95443 17.012 12.3161 18.7296L8.23684 24.7412H11.672L15.966 18.0855L14.4631 17.012C12.5308 15.7238 11.672 14.6503 11.672 12.5033C11.672 10.571 12.9602 9.28284 15.5366 9.28284Z" fill="black"/>
</g>
<path d="M45.792 27.32C43.0187 27.32 40.8533 26.3387 39.296 24.376C37.7387 22.392 36.96 19.5653 36.96 15.896C36.96 14.1253 37.152 12.536 37.536 11.128C37.9413 9.69867 38.528 8.49333 39.296 7.512C40.064 6.50933 41.0133 5.752 42.144 5.24C43.296 4.70667 44.608 4.44 46.08 4.44C47.104 4.44 48.0213 4.58933 48.832 4.888C49.6427 5.16533 50.304 5.48533 50.816 5.848V8.952C50.24 8.58933 49.5573 8.248 48.768 7.928C48 7.608 47.168 7.448 46.272 7.448C44.3733 7.448 42.9973 8.14133 42.144 9.528C41.312 10.8933 40.896 13.016 40.896 15.896C40.896 18.6907 41.312 20.792 42.144 22.2C42.9973 23.608 44.3093 24.312 46.08 24.312C47.104 24.312 47.9893 24.1627 48.736 23.864C49.4827 23.544 50.176 23.1493 50.816 22.68V25.784C50.3253 26.1253 49.664 26.4667 48.832 26.808C48.0213 27.1493 47.008 27.32 45.792 27.32ZM60.7093 13.912V27H56.9013V13.912H52.4213V10.904H65.1893V13.912H60.7093ZM75.6678 19.672H75.1238C73.4811 19.672 72.3078 19.864 71.6038 20.248C70.8998 20.6107 70.5477 21.2507 70.5477 22.168C70.5477 22.8507 70.7398 23.4053 71.1238 23.832C71.5291 24.2373 72.1371 24.44 72.9478 24.44C73.6304 24.44 74.1958 24.3227 74.6438 24.088C75.0918 23.832 75.4331 23.5227 75.6678 23.16V19.672ZM79.4758 23.064C79.4758 24.3867 79.5398 25.6987 79.6678 27H75.9558C75.8918 26.8293 75.8278 26.6267 75.7638 26.392C75.7211 26.1573 75.6891 25.9333 75.6678 25.72H75.5078C75.1451 26.104 74.6758 26.456 74.0998 26.776C73.5238 27.0747 72.6811 27.224 71.5718 27.224C70.0998 27.224 68.9051 26.7867 67.9878 25.912C67.0918 25.0373 66.6438 23.7787 66.6438 22.136C66.6438 20.4933 67.3158 19.224 68.6598 18.328C70.0038 17.4107 72.1371 16.952 75.0598 16.952H75.6678V16.056C75.6678 15.1813 75.4544 14.5733 75.0278 14.232C74.6011 13.8693 73.9291 13.688 73.0118 13.688C72.5211 13.688 72.0198 13.7413 71.5078 13.848C70.9958 13.9333 70.5051 14.0507 70.0358 14.2C69.5878 14.3493 69.1611 14.52 68.7558 14.712C68.3718 14.904 68.0518 15.096 67.7958 15.288V12.12C68.3718 11.7787 69.1398 11.448 70.0998 11.128C71.0598 10.808 72.1798 10.648 73.4598 10.648C75.4864 10.648 76.9904 11.0533 77.9718 11.864C78.9744 12.6747 79.4758 14.0613 79.4758 16.024V23.064ZM95.2415 10.904V27H91.4335V20.28H86.3455V27H82.5375V10.904H86.3455V17.272H91.4335V10.904H95.2415ZM98.4438 10.904H102.252V23.992H107.18V10.904H110.988V23.992H112.684V30.68H109.164V27H98.4438V10.904ZM118.28 10.904V20.888L124.104 10.904H127.496V27H123.816V17.048L117.992 27H114.6V10.904H118.28ZM138.374 27V21.752H136.55L133.478 27H129.574L133.19 20.92C132.166 20.5573 131.376 20.0027 130.822 19.256C130.267 18.488 129.99 17.4853 129.99 16.248C129.99 15.3947 130.15 14.6373 130.47 13.976C130.79 13.2933 131.227 12.728 131.782 12.28C132.336 11.832 132.998 11.4907 133.766 11.256C134.555 11.0213 135.419 10.904 136.358 10.904H142.182V27H138.374ZM136.646 13.912C135.814 13.912 135.142 14.104 134.63 14.488C134.118 14.8507 133.862 15.48 133.862 16.376C133.862 17.3147 134.086 17.9867 134.534 18.392C135.003 18.776 135.675 18.968 136.55 18.968H138.374V13.912H136.646Z" fill="black"/>
<defs>
<clipPath id="clip0_4815_2091">
<rect y="0.966309" width="29.7" height="29.7" rx="14.85" fill="white"/>
</clipPath>
</defs>
</svg>
